<?xml version="1.0" standalone="no"?>
<!DOCTYPE svg PUBLIC "-//W3C//DTD SVG 20010904//EN"
 "http://www.w3.org/TR/2001/REC-SVG-20010904/DTD/svg10.dtd">
<svg version="1.0" xmlns="http://www.w3.org/2000/svg"
 width="1280.000000pt" height="1235.000000pt" viewBox="0 0 1280.000000 1235.000000"
 preserveAspectRatio="xMidYMid meet">
<g transform="translate(0.000000,1235.000000) scale(0.100000,-0.100000)"
fill="#000000" stroke="none">
<path d="M5879 12346 c-3 -3 -63 -10 -134 -16 -696 -59 -1224 -289 -1683 -734
-602 -585 -1004 -1502 -1227 -2798 -45 -267 -86 -563 -130 -943 -45 -393 -62
-528 -81 -640 -68 -410 -302 -708 -705 -899 -327 -155 -722 -238 -1206 -253
-112 -3 -203 -10 -203 -14 0 -12 324 -170 445 -217 615 -241 1068 -225 1474
52 46 31 85 55 88 53 7 -8 -90 -88 -176 -144 -293 -193 -663 -279 -1088 -253
-81 5 -160 12 -175 16 -35 7 -35 4 -2 -116 84 -308 233 -544 428 -679 179
-124 352 -169 684 -178 117 -3 214 -9 217 -13 8 -13 -25 -133 -51 -184 -14
-28 -42 -68 -62 -89 -80 -84 -171 -107 -420 -107 -151 0 -172 -2 -165 -15 23
-41 186 -216 267 -287 178 -156 386 -278 794 -465 61 -28 112 -56 112 -61 0
-12 34 -1 -774 -237 -351 -102 -654 -192 -673 -200 -64 -27 -223 -126 -321
-199 -217 -165 -400 -378 -545 -638 -155 -277 -215 -432 -453 -1161 -53 -163
-100 -300 -105 -303 -8 -5 136 -147 274 -272 137 -123 296 -228 429 -284 l69
-29 5603 0 5603 0 74 27 c141 50 240 113 479 304 80 64 171 135 202 159 54 40
56 44 43 64 -7 12 -77 168 -155 347 -257 589 -367 819 -505 1059 -265 461
-541 763 -845 925 -47 24 -110 54 -140 65 -30 11 -455 126 -945 256 -489 129
-893 239 -898 244 -6 6 28 50 87 113 469 503 738 1176 838 2098 25 237 36 833
19 1130 -39 697 -173 1600 -331 2230 -242 961 -638 1719 -1185 2265 -486 485
-1068 790 -1771 930 -160 32 -375 59 -664 84 -123 11 -402 15 -411 7z"/>
</g>
</svg>
